<svg width="276" height="74" viewBox="0 0 276 74" fill="none" xmlns="http://www.w3.org/2000/svg">
<path d="M21.79 65.24C20.88 66.11 19.76 66.54 18.42 66.54C17.19 66.54 16.24 66.21 15.58 65.56C14.91 64.91 14.58 63.97 14.58 62.73C14.58 61.57 14.86 60.24 15.42 58.72L15.57 58.31C16.12 56.77 16.89 55.61 17.86 54.84C18.83 54.06 19.88 53.67 21.02 53.67C22.16 53.67 23.1 53.99 23.7 54.63C24.31 55.27 24.61 56.19 24.61 57.4C24.61 57.9 24.57 58.4 24.48 58.89L36.38 57.82C36.45 55.53 35.9 53.52 34.72 51.78C33.54 50.04 31.83 48.69 29.59 47.73C28.68 47.34 27.7 47.03 26.66 46.8C25.95 46.64 25.21 46.52 24.43 46.44C22.06 49.2 19 50.29 14.61 50.29C14.45 50.29 14.3 50.21 14.2 50.08C14.11 49.94 14.09 49.77 14.14 49.62L14.93 47.49C15.01 47.27 15.22 47.14 15.45 47.16C16.07 47.22 16.63 47.28 17.15 47.34C20.03 47.65 21.29 47.79 22.27 46.3C22.09 46.29 21.91 46.29 21.72 46.29C18.84 46.29 16.2 46.72 13.81 47.56C13.4 47.71 12.99 47.86 12.6 48.04C10.72 48.84 9.09 49.88 7.71 51.17C6.04 52.72 4.82 54.56 4.05 56.66L3.89 57.08C3.19 59 2.84 60.83 2.84 62.58C2.84 64.85 3.42 66.84 4.59 68.54C5.75 70.24 7.43 71.57 9.62 72.51C11.81 73.45 14.39 73.91 17.38 73.91C20.2 73.91 22.84 73.49 25.33 72.65C27.81 71.8 29.94 70.56 31.69 68.93C33.45 67.3 34.66 65.35 35.32 63.09L23.87 61.47C23.39 63.12 22.7 64.38 21.79 65.24Z" fill="white"/>
<path d="M68.17 48.43C66.31 47.39 63.59 46.86 60.02 46.86H43.47L33.84 73.35H45.57L48.86 64.32H51.32C52.05 64.32 52.57 64.46 52.86 64.72C53.16 64.99 53.31 65.45 53.31 66.12C53.31 66.41 53.28 66.81 53.21 67.31L52.91 69.58C52.73 70.87 52.65 71.8 52.65 72.38C52.65 72.71 52.68 73.03 52.74 73.35H65L65.26 72.78C64.92 72.39 64.67 71.91 64.51 71.35C64.34 70.79 64.28 69.96 64.32 68.86L64.39 66.48C64.43 65.31 64.27 64.4 63.92 63.77C63.57 63.13 62.98 62.63 62.16 62.28L62.2 61.9C64.27 61.54 65.99 60.9 67.36 59.99C68.74 59.08 69.69 57.89 70.22 56.4L70.37 55.98C70.76 54.92 70.96 53.93 70.96 52.99C70.96 51 70.03 49.48 68.17 48.43ZM58.53 55.89L58.38 56.3C58.14 56.97 57.73 57.47 57.15 57.79C56.57 58.11 55.8 58.27 54.84 58.27H51.06L52.8 53.48H56.2C57.01 53.48 57.63 53.62 58.06 53.88C58.49 54.15 58.7 54.53 58.7 55.03C58.7 55.3 58.64 55.58 58.53 55.89Z" fill="white"/>
<path d="M99.47 53.67L101.95 46.86H76.29L66.66 73.35H92.69L95.17 66.54H80.87L82.12 63.13H95.27L97.54 56.89H84.39L85.54 53.67H99.47Z" fill="white"/>
<path d="M111.97 46.86L93.04 73.35H105.09L106.81 70.66H114.24L114 73.35H125.54L125.84 46.86H111.97ZM115.62 59.84L115 64.59H110.55L113.37 59.84C114.25 58.35 115.12 56.74 115.98 55L116.4 55.09C116.06 56.88 115.8 58.47 115.62 59.84Z" fill="white"/>
<path d="M131.76 46.86L128.88 54.81H137.17L130.42 73.35H142.15L148.9 54.81H157.18L160.06 46.86H131.76Z" fill="white"/>
<path d="M188.84 51.74C187.65 50.02 185.95 48.68 183.74 47.72C181.52 46.77 178.92 46.29 175.91 46.29C172.9 46.29 170.37 46.72 167.94 47.58C165.51 48.44 163.44 49.67 161.72 51.28C159.99 52.89 158.74 54.8 157.94 57L157.79 57.42C157.14 59.22 156.81 60.94 156.81 62.56C156.81 64.81 157.4 66.79 158.59 68.49C159.77 70.2 161.48 71.53 163.7 72.49C165.93 73.44 168.54 73.91 171.54 73.91C174.54 73.91 177.11 73.5 179.53 72.66C181.95 71.82 184.01 70.61 185.72 69.03C187.43 67.44 188.68 65.57 189.46 63.4L189.61 62.98C190.28 61.16 190.61 59.41 190.61 57.72C190.61 55.46 190.02 53.47 188.84 51.74ZM178.01 61.64L177.86 62.05C177.32 63.55 176.56 64.68 175.57 65.42C174.59 66.16 173.48 66.54 172.24 66.54C171.07 66.54 170.17 66.21 169.53 65.56C168.89 64.91 168.57 63.98 168.57 62.75C168.57 61.63 168.86 60.29 169.43 58.72L169.58 58.31C170.13 56.77 170.9 55.61 171.89 54.84C172.88 54.06 173.99 53.67 175.21 53.67C176.43 53.67 177.29 54 177.93 54.66C178.57 55.31 178.88 56.26 178.88 57.49C178.88 58.72 178.59 60.05 178.01 61.64Z" fill="white"/>
<path d="M222.5 48.43C220.64 47.39 217.92 46.86 214.35 46.86H197.8L188.17 73.35H199.9L203.19 64.32H205.65C206.38 64.32 206.9 64.46 207.19 64.72C207.49 64.99 207.64 65.45 207.64 66.12C207.64 66.41 207.61 66.81 207.54 67.31L207.24 69.58C207.06 70.87 206.98 71.8 206.98 72.38C206.98 72.71 207.01 73.03 207.07 73.35H219.33L219.59 72.78C219.25 72.39 219 71.91 218.84 71.35C218.67 70.79 218.61 69.96 218.65 68.86L218.72 66.48C218.76 65.31 218.6 64.4 218.25 63.77C217.9 63.13 217.31 62.63 216.49 62.28L216.53 61.9C218.6 61.54 220.32 60.9 221.69 59.99C223.07 59.08 224.02 57.89 224.55 56.4L224.7 55.98C225.09 54.92 225.29 53.93 225.29 52.99C225.29 51 224.36 49.48 222.5 48.43ZM212.86 55.89L212.71 56.3C212.47 56.97 212.06 57.47 211.48 57.79C210.9 58.11 210.13 58.27 209.17 58.27H205.39L207.13 53.48H210.53C211.34 53.48 211.96 53.62 212.39 53.88C212.82 54.15 213.03 54.53 213.03 55.03C213.03 55.3 212.97 55.58 212.86 55.89Z" fill="white"/>
<path d="M239.69 53.27C240.24 53.03 241.11 52.92 242.3 52.92C243.75 52.92 244.82 53.19 245.52 53.73C246.22 54.27 246.56 55.1 246.55 56.23L257.09 55.41C257.1 55.28 257.11 55.07 257.11 54.79C257.11 53.06 256.52 51.56 255.35 50.28C254.18 49 252.49 48.01 250.3 47.33C248.1 46.64 245.52 46.29 242.56 46.29C239.6 46.29 236.8 46.62 234.55 47.27C232.3 47.92 230.55 48.91 229.32 50.25C228.08 51.59 227.46 53.25 227.46 55.24C227.46 56.79 227.96 58.1 228.94 59.15C229.92 60.2 231.4 61.05 233.37 61.69L237.24 62.96C238.56 63.39 239.55 63.75 240.22 64.05C240.88 64.35 241.34 64.63 241.6 64.89C241.85 65.16 241.97 65.47 241.97 65.82C241.97 66.81 240.93 67.31 238.83 67.31C237.41 67.31 236.36 67.04 235.69 66.51C235.02 65.97 234.72 65.15 234.77 64.04L223.06 64.74C222.96 66.59 223.49 68.21 224.67 69.59C225.85 70.97 227.59 72.04 229.88 72.79C232.17 73.54 234.87 73.91 237.98 73.91C241.09 73.91 243.97 73.58 246.31 72.9C248.64 72.23 250.44 71.21 251.7 69.85C252.96 68.49 253.59 66.8 253.59 64.78C253.59 63.19 253.08 61.84 252.06 60.74C251.04 59.64 249.49 58.75 247.42 58.08L243.24 56.74C241.88 56.31 240.89 55.97 240.28 55.71C239.67 55.45 239.28 55.22 239.12 55.03C238.95 54.85 238.87 54.61 238.87 54.33C238.87 53.86 239.15 53.5 239.69 53.27Z" fill="white"/>
<path d="M263.61 57.09C262.53 56.52 261.69 55.71 261.09 54.66C260.49 53.61 260.19 52.41 260.19 51.05C260.19 49.54 260.52 48.2 261.18 47.04C261.84 45.88 262.77 44.98 263.96 44.34C265.15 43.7 266.51 43.38 268.04 43.38C269.41 43.38 270.64 43.67 271.72 44.24C272.8 44.81 273.64 45.62 274.24 46.67C274.84 47.72 275.14 48.92 275.14 50.28C275.14 51.79 274.81 53.13 274.15 54.29C273.49 55.45 272.56 56.35 271.37 56.99C270.18 57.63 268.82 57.95 267.29 57.95C265.91 57.95 264.69 57.66 263.61 57.09ZM270.13 55.2C270.96 54.73 271.61 54.08 272.08 53.22C272.55 52.37 272.78 51.39 272.78 50.28C272.78 49.32 272.58 48.47 272.17 47.74C271.77 47 271.21 46.43 270.49 46.03C269.77 45.63 268.96 45.42 268.05 45.42C266.99 45.42 266.04 45.65 265.21 46.12C264.38 46.59 263.73 47.25 263.26 48.1C262.79 48.95 262.56 49.93 262.56 51.04C262.56 52 262.76 52.85 263.17 53.58C263.57 54.32 264.13 54.89 264.85 55.29C265.57 55.69 266.38 55.9 267.29 55.9C268.35 55.9 269.3 55.67 270.13 55.2ZM263.72 53.98L266.1 47.19H269.75C270.46 47.19 271 47.33 271.39 47.62C271.77 47.91 271.97 48.33 271.97 48.87C271.97 49.36 271.79 49.76 271.42 50.07C271.05 50.38 270.54 50.56 269.89 50.61L269.83 50.87C270.25 51.01 270.45 51.3 270.45 51.74C270.45 51.79 270.44 51.9 270.41 52.08L270.3 52.8C270.26 53 270.24 53.16 270.24 53.27C270.24 53.38 270.25 53.48 270.28 53.54C270.31 53.61 270.34 53.67 270.37 53.72L270.28 53.97H267.84C267.8 53.89 267.78 53.81 267.78 53.71C267.78 53.62 267.81 53.37 267.87 52.95L267.98 52.31C267.99 52.23 268 52.14 268 52.03C268 51.83 267.95 51.7 267.84 51.63C267.73 51.57 267.54 51.54 267.26 51.54H267.03L266.18 53.98H263.7H263.72ZM268.2 50.23C268.57 50.23 268.85 50.16 269.04 50.01C269.24 49.87 269.33 49.66 269.33 49.39C269.33 49 269.12 48.8 268.69 48.8H268.01L267.52 50.22H268.2V50.23Z" fill="white"/>
<path d="M52.56 16.59C51.97 15.81 51.02 15.39 49.82 15.39C48.2 15.39 44.31 17.48 41.65 23.75C43.46 22.66 45.71 22.75 47.75 22.83C50.64 22.94 52.45 22.91 53.03 20.8C53.49 19.12 53.32 17.59 52.56 16.59ZM70.37 16.36C70.07 16.01 69.68 15.84 69.18 15.84C66.97 15.84 62.88 19.5 60.95 26.38C59.66 31.11 60.16 34.07 61.07 35.26C61.41 35.7 61.82 35.93 62.3 35.93C63.97 35.93 66.88 33.2 69.57 25.53L70.86 21.03C71.22 18.84 71.05 17.16 70.37 16.36ZM70.37 16.36C70.07 16.01 69.68 15.84 69.18 15.84C66.97 15.84 62.88 19.5 60.95 26.38C59.66 31.11 60.16 34.07 61.07 35.26C61.41 35.7 61.82 35.93 62.3 35.93C63.97 35.93 66.88 33.2 69.57 25.53L70.86 21.03C71.22 18.84 71.05 17.16 70.37 16.36ZM52.56 16.59C51.97 15.81 51.02 15.39 49.82 15.39C48.2 15.39 44.31 17.48 41.65 23.75C43.46 22.66 45.71 22.75 47.75 22.83C50.64 22.94 52.45 22.91 53.03 20.8C53.49 19.12 53.32 17.59 52.56 16.59ZM52.56 16.59C51.97 15.81 51.02 15.39 49.82 15.39C48.2 15.39 44.31 17.48 41.65 23.75C43.46 22.66 45.71 22.75 47.75 22.83C50.64 22.94 52.45 22.91 53.03 20.8C53.49 19.12 53.32 17.59 52.56 16.59ZM70.37 16.36C70.07 16.01 69.68 15.84 69.18 15.84C66.97 15.84 62.88 19.5 60.95 26.38C59.66 31.11 60.16 34.07 61.07 35.26C61.41 35.7 61.82 35.93 62.3 35.93C63.97 35.93 66.88 33.2 69.57 25.53L70.86 21.03C71.22 18.84 71.05 17.16 70.37 16.36ZM70.37 16.36C70.07 16.01 69.68 15.84 69.18 15.84C66.97 15.84 62.88 19.5 60.95 26.38C59.66 31.11 60.16 34.07 61.07 35.26C61.41 35.7 61.82 35.93 62.3 35.93C63.97 35.93 66.88 33.2 69.57 25.53L70.86 21.03C71.22 18.84 71.05 17.16 70.37 16.36ZM52.56 16.59C51.97 15.81 51.02 15.39 49.82 15.39C48.2 15.39 44.31 17.48 41.65 23.75C43.46 22.66 45.71 22.75 47.75 22.83C50.64 22.94 52.45 22.91 53.03 20.8C53.49 19.12 53.32 17.59 52.56 16.59ZM99.6 11.08H88.52L89.13 8.82C89.33 8.07 89.18 7.27 88.7 6.65C88.23 6.03 87.5 5.67 86.72 5.67H86.3C85.45 5.67 84.65 6.11 84.19 6.83C83.63 7.72 83.22 8.46 82.86 9.11C82.39 9.95 82.06 10.54 81.61 11.08H37.92C38 10.48 38.07 9.91 38.12 9.41C38.21 8.58 38.34 7.45 38.48 7.22C38.61 7.13 39.44 6.7 43.78 7.12C44.92 7.23 45.97 6.56 46.36 5.49L47.15 3.36C47.43 2.59 47.32 1.74 46.85 1.07C46.39 0.4 45.62 0 44.8 0C35.33 0 32.82 3.79 30.55 11.08H15.06C6.75 11.08 0 17.82 0 26.14C0 34.46 6.75 41.21 15.06 41.21H22.05C21.4 43.47 20.84 45.18 20.46 45.5C20.1 45.65 18.65 45.49 17.36 45.35C16.84 45.29 16.27 45.23 15.64 45.17C14.51 45.06 13.45 45.73 13.06 46.79L12.6 48.04L12.27 48.93C11.98 49.69 12.09 50.55 12.56 51.22C13.03 51.89 13.8 52.29 14.61 52.29C20.43 52.29 24.09 50.31 26.66 46.8C27.82 45.23 28.75 43.35 29.55 41.21H99.6C107.92 41.21 114.67 34.46 114.67 26.14C114.67 17.82 107.92 11.08 99.6 11.08ZM28.94 36.6C27.67 41.09 26.26 44.28 24.43 46.44C22.06 49.2 19 50.29 14.61 50.29C14.45 50.29 14.3 50.21 14.2 50.08C14.11 49.94 14.09 49.77 14.14 49.62L14.93 47.49C15.01 47.27 15.22 47.14 15.45 47.16C16.07 47.22 16.63 47.28 17.15 47.34C20.03 47.65 21.29 47.79 22.27 46.3C23.03 45.14 23.63 43 24.69 39.19L31.29 15.71H29.5C29.35 15.71 29.21 15.65 29.11 15.53C29.02 15.41 28.98 15.26 29.01 15.11L29.14 14.51C29.18 14.28 29.39 14.11 29.62 14.11H31.74C34.31 5.12 35.77 1.99 44.8 1.99C44.97 1.99 45.12 2.07 45.21 2.21C45.31 2.34 45.33 2.51 45.27 2.67L44.48 4.8C44.4 5.01 44.21 5.14 43.97 5.13C36.66 4.43 36.54 5.44 36.13 9.19C35.99 10.52 35.81 12.16 35.27 14.11H39.25C39.4 14.11 39.54 14.18 39.63 14.3C39.73 14.41 39.77 14.57 39.73 14.71L39.61 15.32C39.56 15.55 39.36 15.71 39.12 15.71H34.81L28.94 36.6ZM56.48 20.22C55.27 24.68 51.18 24.66 47.58 24.63C44.26 24.61 41.37 24.59 40.38 27.42C39.64 30.18 39.87 32.49 41.06 34.04C42.03 35.31 43.61 36.01 45.51 36.01C48.79 36.01 51.12 33.59 53.04 31.32C53.22 31.11 53.53 31.08 53.74 31.25L54.65 31.97C54.76 32.06 54.83 32.19 54.84 32.33C54.85 32.47 54.8 32.61 54.7 32.71C51.41 36.08 48.27 37.65 44.8 37.65C42.11 37.65 39.87 36.66 38.5 34.86C37.31 33.3 36.19 30.36 37.6 25.19C39.58 17.98 46.15 13.67 51.35 13.67C53.36 13.67 54.98 14.33 55.9 15.54C56.79 16.72 56.99 18.33 56.48 20.22ZM76.13 14.74L71.69 30.8C71.15 32.78 70.53 35.03 70.99 35.63C71.02 35.67 71.1 35.77 71.38 35.77C71.97 35.77 73.07 35.28 74.64 34.31C74.8 34.21 75.01 34.21 75.17 34.32C75.33 34.42 75.42 34.6 75.4 34.79L75.28 35.88C75.26 36.04 75.17 36.17 75.03 36.25C73.49 37.17 72.03 37.65 70.8 37.65C69.68 37.65 68.78 37.25 68.2 36.48C67.66 35.77 67.43 34.78 67.51 33.56C65.63 36.09 63.53 37.49 61.55 37.49C60.27 37.49 59.11 36.89 58.28 35.79C56.67 33.68 56.38 30.13 57.5 26.07C60.01 16.92 64.67 13.67 67.89 13.67C69.75 13.67 71.3 14.69 72.15 16.36L72.68 14.48C72.74 14.26 72.94 14.11 73.16 14.11H75.65C75.81 14.11 75.95 14.18 76.05 14.31C76.14 14.43 76.17 14.59 76.13 14.74ZM80.36 35.63C80.36 35.63 80.46 35.77 80.75 35.77C81.34 35.77 82.44 35.28 84.01 34.31C84.17 34.21 84.38 34.21 84.54 34.32C84.7 34.42 84.79 34.6 84.77 34.79L84.64 35.88C84.63 36.04 84.54 36.17 84.4 36.25C82.86 37.17 81.4 37.65 80.17 37.65C79.05 37.65 78.15 37.25 77.57 36.48C76.76 35.41 76.64 33.71 77.24 31.58L81.58 15.71H81.16C81.01 15.71 80.87 15.65 80.77 15.53C80.68 15.41 80.64 15.26 80.67 15.11L80.8 14.51C80.82 14.38 80.9 14.27 81.01 14.19C83.09 12.82 83.66 11.79 84.6 10.08C84.95 9.45 85.35 8.74 85.88 7.9C85.97 7.76 86.13 7.67 86.3 7.67H86.72C86.87 7.67 87.02 7.74 87.11 7.87C87.21 7.99 87.24 8.15 87.2 8.3L85.17 15.79C86.42 14.72 87.9 14.11 89.37 14.11C89.65 14.11 89.87 14.33 89.87 14.61V15.42C89.87 15.69 89.65 15.92 89.37 15.92C87.96 15.92 85.37 16.52 83.87 20.58L81.06 30.8C80.52 32.78 79.9 35.03 80.36 35.63ZM91.72 35.87C91.44 36.9 90.36 37.65 89.16 37.65C88.5 37.65 87.96 37.42 87.63 36.99C87.34 36.61 87.26 36.12 87.39 35.61C87.67 34.61 88.72 33.87 89.91 33.87C90.6 33.87 91.17 34.11 91.49 34.53C91.77 34.9 91.85 35.38 91.72 35.87ZM69.18 15.84C66.97 15.84 62.88 19.5 60.95 26.38C59.66 31.11 60.16 34.07 61.07 35.26C61.41 35.7 61.82 35.93 62.3 35.93C63.97 35.93 66.88 33.2 69.57 25.53L70.86 21.03C71.22 18.84 71.05 17.16 70.37 16.36C70.07 16.01 69.68 15.84 69.18 15.84ZM49.82 15.39C48.2 15.39 44.31 17.48 41.65 23.75C43.46 22.66 45.71 22.75 47.75 22.83C50.64 22.94 52.45 22.91 53.03 20.8C53.49 19.12 53.32 17.59 52.56 16.59C51.97 15.81 51.02 15.39 49.82 15.39ZM52.56 16.59C51.97 15.81 51.02 15.39 49.82 15.39C48.2 15.39 44.31 17.48 41.65 23.75C43.46 22.66 45.71 22.75 47.75 22.83C50.64 22.94 52.45 22.91 53.03 20.8C53.49 19.12 53.32 17.59 52.56 16.59ZM70.37 16.36C70.07 16.01 69.68 15.84 69.18 15.84C66.97 15.84 62.88 19.5 60.95 26.38C59.66 31.11 60.16 34.07 61.07 35.26C61.41 35.7 61.82 35.93 62.3 35.93C63.97 35.93 66.88 33.2 69.57 25.53L70.86 21.03C71.22 18.84 71.05 17.16 70.37 16.36ZM70.37 16.36C70.07 16.01 69.68 15.84 69.18 15.84C66.97 15.84 62.88 19.5 60.95 26.38C59.66 31.11 60.16 34.07 61.07 35.26C61.41 35.7 61.82 35.93 62.3 35.93C63.97 35.93 66.88 33.2 69.57 25.53L70.86 21.03C71.22 18.84 71.05 17.16 70.37 16.36ZM52.56 16.59C51.97 15.81 51.02 15.39 49.82 15.39C48.2 15.39 44.31 17.48 41.65 23.75C43.46 22.66 45.71 22.75 47.75 22.83C50.64 22.94 52.45 22.91 53.03 20.8C53.49 19.12 53.32 17.59 52.56 16.59ZM52.56 16.59C51.97 15.81 51.02 15.39 49.82 15.39C48.2 15.39 44.31 17.48 41.65 23.75C43.46 22.66 45.71 22.75 47.75 22.83C50.64 22.94 52.45 22.91 53.03 20.8C53.49 19.12 53.32 17.59 52.56 16.59ZM52.56 16.59C51.97 15.81 51.02 15.39 49.82 15.39C48.2 15.39 44.31 17.48 41.65 23.75C43.46 22.66 45.71 22.75 47.75 22.83C50.64 22.94 52.45 22.91 53.03 20.8C53.49 19.12 53.32 17.59 52.56 16.59Z" fill="#C2E000"/>
</svg>
